<?xml version="1.0" encoding="utf-8"?>
<!-- Generator: Adobe Illustrator 25.2.1, SVG Export Plug-In . SVG Version: 6.00 Build 0)  -->
<svg version="1.1" id="Layer_1" xmlns="http://www.w3.org/2000/svg" xmlns:xlink="http://www.w3.org/1999/xlink" x="0px" y="0px"
	 viewBox="0 0 154.1 80.3" style="enable-background:new 0 0 154.1 80.3;" xml:space="preserve">
<style type="text/css">
	.st0{enable-background:new    ;}
	.st1{fill:url(#SVGID_1_);}
</style>
<g class="st0">
	<path d="M49.4,8.7c0.1,0.4,0,0.7-0.2,1c-2,3-6.8,14.5-10.7,25c1.4,1.1,3.2,3.6,3.3,4.2s-0.4,1.5-2.6,1.9c-0.7,0.1-1.3,0.1-3,0.4
		c-2.7,7.5-3.9,12.2-3.7,13.6c0.1,0.8,0.4,1.1,0.4,1.4c0,0.2-0.2,0.3-0.4,0.4c-1.8,0.3-4.9-2.9-5.1-4.5c-0.2-1.2,0.5-4.9,1.6-9.8
		c-3.7,0.6-8.2,1.3-11.9,1.8c-3.2,10-5,18.3-5.3,18.9c-0.2,0.4-0.5,0.6-0.8,0.7c-1.5,0.2-3.4-2-3.7-4.2C7,57.7,8.2,52,10,45
		c-1.1,0.1-1.9,0.1-2.2,0c-2.4-0.6-5.7-4.5-5.7-4.3c-0.2-1.4,1.2-1.5,9.9-3.3c3.9-13.5,8-25.2,9.5-25.5c1.7-0.3,5.4,2.5,5.7,4.6
		c0.1,0.5-4,9.7-7.3,19.3c2-0.4,4-0.7,5.9-1s3.7-0.6,5.3-0.8c4.3-15,9.7-30,11.3-30.3c1.8-0.3,5.9,2.2,6.8,4.2
		C49.3,8.2,49.4,8.5,49.4,8.7z"/>
	<path d="M58.4,48.7c-2.2,1.9-4.4,3.4-6.8,3.8c-1.2,0.2-2.3,0.2-3.3,0c-1.6-0.3-4.5-2.9-4.9-5.4c-0.6-3.8,5.9-17,7.5-18.2
		c0.3-0.2,0.6-0.3,0.9-0.3c2-0.3,4.8,1.7,5,3.1c0.1,0.9-2.3,5-4.5,10.3c-1,2.3-1.7,4.5-1.5,5.6c0.1,0.7,0.7,1,1.8,0.9
		c1.2-0.2,2.7-1.5,4.5-3.4c2.5-2.6,4.1-6.7,5.6-6.9c0.8-0.1,1.5,0.6,1.6,1.4c0.1,0.4,0,0.8-0.2,1.3C63.5,42.4,60.9,46.4,58.4,48.7z
		 M58.6,25.9c-1.9,0.3-4.4-1.6-4.6-3.1c-0.3-2.1,2.4-5.3,3.6-5.5c2.1-0.3,4.2,1.2,4.4,2.5c0.2,1.1-0.3,2.3-0.7,3.3
		C60.4,24.8,59.7,25.8,58.6,25.9z"/>
	<path d="M82.3,43.7c-1,0.2-2.2,0.2-3.4,0.2c-2.3,3.5-4.8,6.2-8.3,6.8c-2.3,0.3-7.9-3.3-8.7-5c-0.3-0.7-0.5-1.5-0.7-2.3
		C59.6,32.8,71.2,10.7,76.8,8c1.1-0.2,5.7,0.5,6,2.5c0.1,0.4-0.1,0.8-0.4,1.2c-3.7,3.8-16.5,24.2-15.2,32.1c0.2,1.1,0.8,2.6,2,2.4
		C70.4,46,72,43.9,74,41c-0.8-0.7-2.1-1.6-2.5-4.3c-0.9-6,2.8-11,6.2-11.5c1.4-0.2,6.1,2.2,6.5,4.9c0.3,2.2-0.1,5.7-3,10.4h0.2
		c0.1,0,0.3,0,0.5,0c2.4-0.4,4.9-2.5,6.3-5c0.4-0.7,0.9-1.1,1.4-1.1c0.8-0.1,1.7,0.5,1.9,1.5c0,0.3,0,0.7-0.2,1.1
		C89.1,40.9,86.3,43.1,82.3,43.7z M79.2,29.3c-1.2,0.2-4.4,3.4-3.8,7c0.1,0.7,0.4,1.1,0.6,1.4c2.1-3.7,3.8-7.3,3.7-8.2
		c0-0.1,0-0.1-0.1-0.2C79.5,29.4,79.4,29.3,79.2,29.3z"/>
	<path d="M102.3,41.9c-2.2,1.9-4.4,3.4-6.8,3.8c-1.2,0.2-2.3,0.2-3.3,0c-1.6-0.3-4.5-2.9-4.9-5.4c-0.6-3.8,5.9-17,7.5-18.2
		c0.3-0.2,0.6-0.3,0.9-0.3c2-0.3,4.8,1.7,5,3.1c0.1,0.9-2.3,5-4.5,10.3c-1,2.3-1.7,4.5-1.5,5.6c0.1,0.7,0.7,1,1.8,0.9
		c1.2-0.2,2.7-1.5,4.5-3.4c2.5-2.6,4.1-6.7,5.6-6.9c0.8-0.1,1.5,0.6,1.6,1.4c0.1,0.4,0,0.8-0.2,1.3
		C107.4,35.6,104.8,39.6,102.3,41.9z M102.4,19.1c-1.9,0.3-4.4-1.6-4.6-3.1c-0.3-2.1,2.4-5.3,3.6-5.5c2.1-0.3,4.2,1.2,4.4,2.5
		c0.2,1.1-0.3,2.3-0.7,3.3C104.3,18,103.6,18.9,102.4,19.1z"/>
	<path d="M123.7,42.5c-4.9,0.8-9.2-2.4-12.7-5.8c-1.4,3.2-2.8,7.5-3.5,7.7c-1.4,0.2-4.9-1-5.2-2.9c-0.6-3.7,15-38.6,17.3-40.2
		c0.1-0.1,0.3-0.1,0.5-0.1c1.8-0.3,5.7,0.9,6,2.5c0,0.1-3.6,7.2-7.9,16.9c2.1-1.5,3.6-2.6,5.6-2.9c0.4-0.1,0.7-0.1,1.1-0.1
		c1.6,0,3.7,3.5,4.2,6.6c0.6,3.6-1.7,6.6-10.8,10.1c0.5,1.9,2.9,4.3,5.7,3.9c2.7-0.4,6.3-6.3,8.7-9.9c0.2-0.4,0.6-0.6,1-0.7
		c0.8-0.1,1.8,0.5,1.9,1.3c0.1,0.4,0,0.9-0.3,1.3C133.2,33.7,127.4,41.9,123.7,42.5z M120.7,24.7c-1.6,0.2-4.9,2.5-5.7,3l-1.1,2.5
		c1.4-0.8,7.9-3.9,7.7-5.3C121.4,24.7,121.1,24.6,120.7,24.7z"/>
	<path d="M146.3,35c-2.2,1.9-4.4,3.4-6.8,3.8c-1.2,0.2-2.3,0.2-3.3,0c-1.6-0.3-4.5-2.9-4.9-5.4c-0.6-3.8,5.9-17,7.5-18.2
		c0.3-0.2,0.6-0.3,0.9-0.3c2-0.3,4.8,1.7,5,3.1c0.1,0.9-2.3,5-4.5,10.3c-1,2.3-1.7,4.5-1.5,5.6c0.1,0.7,0.7,1,1.8,0.9
		c1.2-0.2,2.7-1.5,4.5-3.4c2.5-2.6,4.1-6.7,5.6-6.9c0.8-0.1,1.5,0.6,1.6,1.4c0.1,0.4,0,0.8-0.2,1.3C151.4,28.8,148.9,32.8,146.3,35z
		 M146.5,12.3c-1.9,0.3-4.4-1.6-4.6-3.1c-0.3-2.1,2.4-5.3,3.6-5.5c2.1-0.3,4.2,1.2,4.4,2.5c0.2,1.1-0.3,2.3-0.7,3.3
		C148.4,11.1,147.6,12.1,146.5,12.3z"/>
</g>
<linearGradient id="SVGID_1_" gradientUnits="userSpaceOnUse" x1="26.6" y1="61.1151" x2="146.366" y2="61.1151">
	<stop  offset="0" style="stop-color:#CF338B"/>
	<stop  offset="1" style="stop-color:#AB58C8"/>
</linearGradient>
<path class="st1" d="M26.6,74.9c0-0.1,26.5,8.5,43.6-5C77.7,64,78.7,57.7,88,54.1c7.3-2.8,14.3-1.9,20.5-1.2
	c14,1.8,16.9,6.7,25.1,4.6c6.9-1.7,13.5-7.4,12.7-10.4c-0.4-1.5-2.6-2.7-4.3-2.3c-2.6,0.6-2.5,4.8-4.6,7c-4.1,4.2-13.6-2.1-24.7-4.3
	C96,44.2,77.1,50.4,66.4,60.6c-4.8,4.6-4.1,6.3-8.9,9.7C44.1,79.8,26.6,75,26.6,74.9z"/>
</svg>
